<?xml version="1.0" standalone="no"?><!DOCTYPE svg PUBLIC "-//W3C//DTD SVG 1.1//EN" "http://www.w3.org/Graphics/SVG/1.1/DTD/svg11.dtd"><svg t="1598536511943" class="icon" viewBox="0 0 1024 1024" version="1.1" xmlns="http://www.w3.org/2000/svg" p-id="947" xmlns:xlink="http://www.w3.org/1999/xlink" width="200" height="200"><defs><style type="text/css"></style></defs><path d="M541.11364791 507.6973h-123.8503751a134.67064379 134.67064379 0 0 0-78.05617004 24.71152736c-34.90213264 24.53477973-57.7357165 65.11492986-57.7357165 111.08035917v224.740129c0 35.07335691 12.35576368 67.28008827 32.9689555 92.5218585a144.12664174 144.12664174 0 0 0 20.90593005 20.90593007 145.43015548 145.43015548 0 0 0 90.00320485 32.90819849h107.6890141c34.13990851-0.5247195 65.40766811-12.82524957 90.05843849-32.90819849 32.85296486-26.87668578 53.81412854-67.69434051 53.81412855-113.42778857v-224.740129c-0.00552336-75.0072735-60.79013639-135.79188654-135.7974099-135.79188653z" fill="#E8E6F4" p-id="948"></path><path d="M541.11364791 507.6973h-123.8503751c-27.68862018 0-53.36121277 8.34027858-74.75872216 22.55741568a134.99652222 134.99652222 0 0 0-22.36962134 74.57092781v27.22465766h356.25693235c-5.81057819-69.64961111-64.12624782-124.35300115-135.27821375-124.35300115z" fill="#FFDDBE" p-id="949"></path><path d="M676.39186166 632.05582452h-356.25693235v197.51547134c0 35.07335691 12.35576368 67.28008827 32.96895549 92.5218585a144.12664174 144.12664174 0 0 0 20.90593007 20.90593005 145.43015548 145.43015548 0 0 0 90.00320484 32.9081985h107.68901411a145.43015548 145.43015548 0 0 0 79.80155285-25.30252725 145.65109002 145.65109002 0 0 0 25.40747114-82.36991677v-224.74012899c-0.00552336-6.05912954-0.70146714-13.59299707-0.51919615-11.43888538z" fill="#8479B9" p-id="950"></path><path d="M479.1525585 72.32371185a216.48270087 216.48270087 0 0 0-127.86586021 41.55778541c-54.52111906 39.56385126-89.9645413 103.79504299-89.96454131 176.33337311 0 120.28228242 97.54259573 217.82487815 217.82487816 217.82487814 72.54385347 0 136.77504522-35.43789889 176.33337309-89.9645413a216.63183169 216.63183169 0 0 0 41.55778542-127.8658602c0.01104672-120.34303941-97.53154901-217.88563515-217.88563515-217.88563516z" fill="#E8E6F4" p-id="951"></path><path d="M479.1525585 72.32371185a216.48270087 216.48270087 0 0 0-127.86586021 41.55778541 216.48270087 216.48270087 0 0 0-41.55778542 127.86586022c0 120.34856277 97.54259573 217.89115851 217.89115852 217.89115852a216.61526158 216.61526158 0 0 0 127.86033684-41.55778542 216.63183169 216.63183169 0 0 0 41.55778542-127.86586021c0.01104672-120.34856277-97.53154901-217.89115851-217.88563515-217.89115852z" fill="#FFDDBE" p-id="952"></path><path d="M714.30975067 654.67952057h-84.24233694a48.36809235 48.36809235 0 0 0-48.36809235 48.36809234v144.56298744a48.36809235 48.36809235 0 0 0 48.36809235 48.36809236h84.24233694a48.36809235 48.36809235 0 0 0 48.36809235-48.36809236v-144.56298744a48.37361571 48.37361571 0 0 0-48.36809235-48.36809234z" fill="#E8E6F4" p-id="953"></path><path d="M714.30975067 654.67952057h-84.24233694c-3.02680308 0-5.98180244 0.3148317-8.85947471 0.84507458a48.76025115 48.76025115 0 0 0-0.84507458 8.85947472v144.56298744a48.36809235 48.36809235 0 0 0 48.36809234 48.36809234h84.24233693c3.02680308 0 5.98180244-0.3148317 8.85947473-0.84507458a48.76025115 48.76025115 0 0 0 0.84507458-8.85947472v-144.56298744a48.37361571 48.37361571 0 0 0-48.36809235-48.36809234z" fill="#94D3CC" p-id="954"></path><path d="M705.8037712 593.92252435h-67.23037799a10.22926882 10.22926882 0 0 0-10.22926882 10.22926882v50.5277274h87.69443898v-50.5277274a10.24031554 10.24031554 0 0 0-10.23479217-10.22926882z" fill="#EB6B69" p-id="955"></path><path d="M672.18858221 536.79437782a28.99765728 28.99765728 0 0 0-28.99765729 28.99765728v28.13048925h57.99531457v-28.13048925a28.99765728 28.99765728 0 0 0-28.99765728-28.99765728z" fill="#FCC800" p-id="956"></path><path d="M524.42756741 337.32915924c-9.32343723 16.10612736-26.66127461 26.10893827-45.24186873 26.1089383s-35.91843148-10.00281091-45.24186872-26.1089383l-19.12188373 11.06882005c13.26159527 22.90538757 37.92341236 37.13357141 64.36375245 37.13357141s51.10215717-14.22818384 64.36375245-37.13357141l-19.12188372-11.06882005z" fill="#44294F" p-id="957"></path><path d="M406.56451811 290.19277691m-19.74050039 0a19.74050041 19.74050041 0 1 0 39.4810008 0 19.74050041 19.74050041 0 1 0-39.4810008 0Z" fill="#44294F" p-id="958"></path><path d="M551.80687925 290.19277691m-19.7405004 0a19.74050041 19.74050041 0 1 0 39.48100081 0 19.74050041 19.74050041 0 1 0-39.48100081 0Z" fill="#44294F" p-id="959"></path><path d="M732.60312989 640.78273853v-36.625422c0-10.46125008-6.08674635-19.44776214-14.84680054-23.86092943v-14.504352c0-25.12577963-20.44196754-45.56774717-45.56774714-45.56774715a45.45175653 45.45175653 0 0 0-32.19568464 13.34996906 163.07177785 163.07177785 0 0 0-56.43772611-33.54890863c77.01777774-38.46470197 130.06415882-118.05084365 130.06415879-209.8270481 0-107.97070563-73.39445143-199.07305979-172.89231776-226.17620346 16.39334226-16.01775355 26.61708771-38.32661789 26.61708769-62.99948171V-7.19614947h-33.14017974v8.20771786c0 29.16888155-22.83910722 53.04638106-51.57164307 54.83595077-1.14885956-0.01657008-2.28667241-0.08837381-3.44105532-0.08837383-2.84453209 0-5.65592402 0.11599063-8.47836265 0.21541117a88.30753232 88.30753232 0 0 0 10.59933415-42.08250491v-19.84544433h-33.14017976v19.84544433c0 23.38592018-15.21134251 44.47412123-37.18880503 52.01351211-96.10099792 29.27934881-166.22561828 118.73021733-166.22561829 224.28168986 0 91.79829792 53.06295115 171.38996295 130.10282234 209.84914155a162.77903957 162.77903957 0 0 0-53.3722595 30.63809618 162.67961904 162.67961904 0 0 0-56.58685692 123.40298267v214.1463182a163.21538528 163.21538528 0 0 0 36.65856218 102.94444505 161.12203059 161.12203059 0 0 0 23.30306974 23.31411645 163.11596475 163.11596475 0 0 0 99.85688495 36.63646872c1.0383923 0.05523363 2.12649487 0.06628035 3.14831707 0.06628035h102.64618343c1.0218222 0 2.10440141-0.01104672 3.14831708-0.06628035 36.74693598-0.65175686 71.28452665-13.31130554 99.92316531-36.64751545a162.51944151 162.51944151 0 0 0 53.72023137-81.92804772h27.00924652c35.80796421 0 64.93818222-29.13021801 64.93818221-64.93818222v-144.56298744c-0.01104672-29.44504971-19.72945369-54.3333247-46.65032636-62.25935102z m-72.8421151-74.99070343c0-6.85449385 5.57307356-12.42756741 12.42756742-12.42756741s12.42756741 5.57859692 12.42756741 12.42756741v11.56039937h-24.85513483v-11.56039937z m-14.85232389 44.7061025h54.55425923v27.61681645h-54.55425923v-27.61681645zM277.89777022 290.19277691c0-89.93140112 59.28778158-166.25875845 140.82367049-191.9976314l0.02209347 0.07732709c0.6462335-0.19884108 1.26485021-0.45291579 1.90556033-0.6628036a200.60855477 200.60855477 0 0 1 58.53660417-8.7103439v0.25959807c1.15990629 0 2.29219577-0.12703734 3.44105534-0.17674763 109.40125674 1.8503267 197.84687312 91.36747557 197.84687312 201.20507802 0 107.1035376-84.09320613 194.91396722-189.72200573 200.93443319h-23.14289218c-105.61775287-6.01494262-189.71095899-93.81984887-189.71095901-200.92890984z m65.22539713 265.59092391a129.73828037 129.73828037 0 0 1 84.73943963-31.51631094h38.61935613c4.20880283 0.22645789 8.43969911 0.35349524 12.70373557 0.35349525s8.49493275-0.13256073 12.70373558-0.35349525h38.61935613c38.07806654 0 72.34501239 16.50380951 96.10652129 42.71216833v13.31682889c-8.76557755 4.41316727-14.84680053 13.39967934-14.84680053 23.86092943v10.35630617H304.2497365a129.55048602 129.55048602 0 0 1 38.87343085-58.72992188z m227.31401628 121.60236624a64.55154678 64.55154678 0 0 0-5.30795212 25.66154585v103.27584684l-57.2386138-61.82300533 62.54656592-67.11438736z m-85.1205517 42.72873841l-67.0922939-72.46652638h134.62093352l-67.52863962 72.46652638z m-187.27515578-66.02628478c0-2.15411168 0.06628035-4.3027 0.17674764-6.4402416h74.85261931l163.28718902 176.37203665-112.49434017 108.65560267-125.8222158-127.05392579v-151.53347193zM427.86260698 998.05596972c-0.44739243 0-0.92240166 0.01104672-1.38084083-0.01657009l-0.88373813-0.03866354c-29.37876935-0.45843915-56.96244563-10.54410052-79.77393603-29.17440492a128.32982272 128.32982272 0 0 1-18.55297729-18.5529773 130.04206535 130.04206535 0 0 1-29.22963855-82.03851498v-15.51512749L441.96375345 998.05596972h-14.10114647z m184.76202548-29.24620863c-22.87777075 18.64135111-50.48906386 28.73253584-79.85126312 29.190975l-0.88373813 0.03866354c-0.45291579 0.02761681-0.92792503 0.01657008-1.38084082 0.01657009h-41.9057573l-41.42522468-41.82843022 111.68792913-107.88233183 6.8158303 7.36264327a65.06521958 65.06521958 0 0 0 51.42251225 55.54294127l23.65656498 25.55107858a130.22433634 130.22433634 0 0 1-28.13601261 32.0078903z m133.47759732-121.19363736a31.83666603 31.83666603 0 0 1-31.79800247 31.79800247h-84.23681358c-14.39940811 0-26.57842416-9.63274559-30.47791864-22.78387358h49.11926975v-33.14017976h-50.43935357v-32.27853508h50.43935357v-33.14017975h-50.43935357v-32.27301172h50.43935357v-33.14017975h-48.6608306c4.31927009-12.43861413 16.12822082-21.40303275 30.01947949-21.40303275h84.23681358a31.83666603 31.83666603 0 0 1 31.79800247 31.79800246v144.56298746z" fill="#44294F" p-id="960"></path></svg>