<?xml version="1.0" standalone="no"?><!DOCTYPE svg PUBLIC "-//W3C//DTD SVG 1.1//EN" "http://www.w3.org/Graphics/SVG/1.1/DTD/svg11.dtd"><svg t="1598340629990" class="icon" viewBox="0 0 1024 1024" version="1.1" xmlns="http://www.w3.org/2000/svg" p-id="1090" xmlns:xlink="http://www.w3.org/1999/xlink" width="200" height="200"><defs><style type="text/css"></style></defs><path d="M116.4921875 790.09143067V233.90856933c0-10.19668579 8.34274292-18.53942872 18.53942872-18.5394287h61.79809569c10.19668579 0 18.53942872 8.34274292 18.53942872 18.53942871v234.67826843L480.32847596 226.80178833C512.15449524 200.38310242 561.43847656 222.47592163 561.43847656 264.80761719v203.77922058L826.39781189 226.80178833C858.22383118 200.38310242 907.5078125 222.47592163 907.5078125 264.80761719v494.38476562c0 42.33169555-49.28398132 64.42451477-81.11000061 38.00582886L561.43847656 557.2671051V759.19238281c0 42.33169555-49.28398132 64.42451477-81.1100006 38.00582886L215.36914062 557.2671051V790.09143067c0 10.19668579-8.34274292 18.53942872-18.53942871 18.5394287H135.03161621c-10.19668579 0-18.53942872-8.34274292-18.53942871-18.53942871z" p-id="1091" fill="#adafbc"></path></svg>