<?xml version="1.0" standalone="no"?><!DOCTYPE svg PUBLIC "-//W3C//DTD SVG 1.1//EN" "http://www.w3.org/Graphics/SVG/1.1/DTD/svg11.dtd"><svg t="1598527254685" class="icon" viewBox="0 0 1024 1024" version="1.1" xmlns="http://www.w3.org/2000/svg" p-id="9272" xmlns:xlink="http://www.w3.org/1999/xlink" width="200" height="200"><defs><style type="text/css"></style></defs><path d="M804.608263 914.285714q0-14.848-10.825143-25.746286t-25.746286-10.825143-25.746286 10.825143-10.825143 25.746286 10.825143 25.746286 25.746286 10.825143 25.746286-10.825143 10.825143-25.746286zM877.75112 477.696q0-108.032-95.451429-108.032-14.848 0-32.036571 2.852571-9.142857-17.115429-29.988571-27.136t-41.984-10.020571-39.424 10.313143q-28.598857-30.281143-68.022857-30.281143-14.262857 0-31.744 5.705143t-27.136 14.262857l0-189.147429q0-29.696-21.723429-51.419429t-51.419429-21.723429q-29.110857 0-51.126857 22.308571t-22.016 50.834286l0 329.142857q-11.410286 0-27.721143-8.557714t-31.451429-18.870857-38.838857-18.870857-48.274286-8.557714q-38.253714 0-55.734857 25.453714t-17.408 65.974857q0 13.677714 79.433143 51.419429 25.161143 13.677714 37.156571 21.138286 36.571429 22.820571 82.870857 64 46.299429 40.594286 60.562286 57.709714 32.548571 39.424 32.548571 80.018286l0 18.285714 365.714286 0 0-18.285714q0-41.179429 18.285714-95.451429t36.571429-110.592 18.285714-102.546286zM950.893977 474.843429q0 75.995429-39.424 184.027429-33.718857 93.696-33.718857 127.414857l0 164.571429q0 30.281143-21.430857 51.712t-51.712 21.430857l-365.714286 0q-30.281143 0-51.712-21.430857t-21.430857-51.712l0-164.571429q0-5.705143-2.56-12.288t-7.972571-13.458286-10.313143-12.873143-12.873143-13.677714-12.288-11.702857-12.288-10.825143-9.728-7.972571q-42.276571-37.156571-73.728-57.124571-11.995429-7.460571-35.401143-18.870857t-41.179429-21.138286-35.986286-23.113143-28.306286-31.451429-10.020571-39.716571q0-71.460571 38.253714-117.979429t108.032-46.592q38.838857 0 73.142857 12.580571l0-213.723429q0-59.465143 43.446857-102.838857t102.253714-43.446857q59.977143 0 103.424 43.154286t43.446857 103.131429l0 96.548571q35.401143 2.267429 68.022857 21.138286 11.995429-1.682286 24.576-1.682286 57.709714 0 101.741714 34.304 79.433143-0.585143 125.44 48.566857t46.006857 129.682286z" p-id="9273" fill="#1296db"></path></svg>